<svg width="29" height="29" viewBox="0 0 29 29" fill="none" xmlns="http://www.w3.org/2000/svg">
<g id="dashicons:instagram">
<path id="Vector" d="M18.4149 14.4999C18.4149 12.3249 16.6749 10.5849 14.4999 10.5849C12.3249 10.5849 10.5849 12.3249 10.5849 14.4999C10.5849 16.6749 12.3249 18.4149 14.4999 18.4149C16.6749 18.4149 18.4149 16.6749 18.4149 14.4999ZM20.4449 14.4999C20.4449 17.8349 17.8349 20.4449 14.4999 20.4449C11.1649 20.4449 8.5549 17.8349 8.5549 14.4999C8.5549 11.1649 11.1649 8.5549 14.4999 8.5549C17.8349 8.5549 20.4449 11.1649 20.4449 14.4999ZM22.0399 8.2649C22.0399 9.1349 21.4599 9.7149 20.5899 9.7149C19.7199 9.7149 19.1399 9.1349 19.1399 8.2649C19.1399 7.3949 19.7199 6.8149 20.5899 6.8149C21.4599 6.8149 22.0399 7.5399 22.0399 8.2649ZM14.4999 4.9299C12.7599 4.9299 9.1349 4.7849 7.6849 5.3649C6.6699 5.7999 5.7999 6.6699 5.5099 7.6849C4.9299 9.1349 5.0749 12.7599 5.0749 14.4999C5.0749 16.2399 4.9299 19.8649 5.5099 21.3149C5.7999 22.3299 6.6699 23.1999 7.6849 23.4899C9.1349 24.0699 12.9049 23.9249 14.4999 23.9249C16.0949 23.9249 19.8649 24.0699 21.3149 23.4899C22.3299 23.0549 23.0549 22.3299 23.4899 21.3149C24.0699 19.7199 23.9249 16.0949 23.9249 14.4999C23.9249 12.9049 24.0699 9.1349 23.4899 7.6849C23.1999 6.6699 22.3299 5.7999 21.3149 5.5099C19.8649 4.7849 16.2399 4.9299 14.4999 4.9299ZM26.0999 14.4999V19.2849C26.0999 21.0249 25.5199 22.7649 24.2149 24.2149C22.9099 25.5199 21.1699 26.0999 19.2849 26.0999H9.7149C7.9749 26.0999 6.2349 25.5199 4.7849 24.2149C3.6249 22.9099 2.8999 21.1699 2.8999 19.2849V9.7149C2.8999 7.8299 3.6249 6.0899 4.7849 4.7849C6.2349 3.6249 7.9749 2.8999 9.7149 2.8999H19.2849C21.0249 2.8999 22.7649 3.4799 24.2149 4.7849C25.3749 6.0899 26.0999 7.8299 26.0999 9.7149V14.4999Z" fill="black" fill-opacity="0.4"/>
</g>
</svg>
