<svg width="24" height="24" viewBox="0 0 24 24" fill="none" xmlns="http://www.w3.org/2000/svg">
<g id="simple-icons:opensea">
<path id="Vector" d="M12.5 0C6.15008 0 1 5.15008 1 11.5C1 17.8499 6.15008 23 12.5 23C18.8499 23 24 17.8499 24 11.5C24 5.15008 18.8528 0 12.5 0ZM6.67333 11.8862L6.72221 11.8086L9.71508 7.12808C9.72511 7.1127 9.73908 7.10029 9.75554 7.09214C9.772 7.084 9.79034 7.08043 9.80865 7.0818C9.82697 7.08317 9.84457 7.08944 9.85964 7.09994C9.8747 7.11044 9.88667 7.12479 9.89429 7.1415C10.3926 8.26179 10.8258 9.65521 10.6226 10.5225C10.5383 10.879 10.3016 11.362 10.0342 11.8086C9.99991 11.8739 9.96249 11.9376 9.92208 11.9993C9.91241 12.0131 9.89946 12.0242 9.8844 12.0317C9.86935 12.0393 9.85266 12.0429 9.83583 12.0424H6.76246C6.74411 12.0427 6.72604 12.038 6.71014 12.0288C6.69425 12.0197 6.68113 12.0064 6.67219 11.9904C6.66325 11.9743 6.65881 11.9562 6.65935 11.9379C6.65989 11.9195 6.66538 11.9017 6.67525 11.8862H6.67333ZM20.0076 13.4962C20.0078 13.5167 20.002 13.5368 19.991 13.554C19.9799 13.5712 19.964 13.5847 19.9453 13.593C19.7124 13.6917 18.9199 14.0578 18.5902 14.5149C17.7488 15.686 17.1067 17.3612 15.6692 17.3612H9.67579C9.16976 17.3604 8.66883 17.2599 8.20164 17.0655C7.73445 16.8711 7.31016 16.5865 6.95301 16.228C6.59585 15.8695 6.31284 15.4442 6.12015 14.9762C5.92746 14.5083 5.82887 14.007 5.83 13.501V13.432C5.83 13.3764 5.876 13.3304 5.9335 13.3304H9.27329C9.34037 13.3304 9.38829 13.3908 9.3835 13.4569C9.35858 13.6735 9.39979 13.8968 9.50329 14.099C9.70071 14.5015 10.1128 14.7526 10.5565 14.7526H12.2106V13.4617H10.5737C10.5546 13.4615 10.5358 13.4561 10.5195 13.446C10.5032 13.4359 10.4899 13.4216 10.4811 13.4045C10.4724 13.3875 10.4684 13.3683 10.4697 13.3492C10.471 13.3301 10.4775 13.3116 10.4885 13.2959L10.5488 13.2097C10.7022 12.9883 10.9235 12.6481 11.144 12.259C11.2935 11.9964 11.4391 11.7166 11.556 11.4348C11.579 11.385 11.5972 11.3323 11.6183 11.2815C11.65 11.1914 11.6825 11.1071 11.7055 11.0237C11.7281 10.953 11.7489 10.8818 11.7678 10.81C11.8225 10.5704 11.8455 10.3174 11.8455 10.0558C11.8455 9.95229 11.8416 9.844 11.832 9.74242C11.8273 9.63029 11.8129 9.51721 11.7995 9.40508C11.7887 9.30476 11.7734 9.20499 11.7535 9.10608C11.7277 8.95548 11.6963 8.80588 11.6595 8.65758L11.6461 8.60008C11.6174 8.49658 11.5925 8.39883 11.5599 8.29629C11.4686 7.98139 11.3637 7.6706 11.2455 7.36479C11.2044 7.24976 11.159 7.13628 11.1095 7.02458C11.0405 6.854 10.9695 6.69971 10.9053 6.555C10.8734 6.493 10.8433 6.43004 10.8152 6.36621C10.7841 6.29734 10.7512 6.22928 10.7165 6.16208C10.6935 6.11129 10.6658 6.06242 10.6475 6.01642L10.4453 5.64458C10.4175 5.59379 10.4635 5.5315 10.5191 5.54779L11.7841 5.88992H11.7937L11.9595 5.93783L12.1435 5.98958L12.2106 6.00779V5.25742C12.2106 4.89421 12.5 4.6 12.8613 4.6C12.9466 4.59977 13.0311 4.6168 13.1096 4.65007C13.1882 4.68334 13.2592 4.73215 13.3184 4.79358C13.4408 4.917 13.5096 5.08363 13.5101 5.25742V6.37292L13.6452 6.41029C13.6548 6.41508 13.6663 6.41988 13.6749 6.42658C13.7075 6.44958 13.7554 6.486 13.8158 6.532C13.8637 6.56842 13.9145 6.61442 13.9739 6.66329C14.1632 6.81747 14.3466 6.97858 14.524 7.14629C14.7291 7.337 14.9591 7.56029 15.1795 7.8085C15.2418 7.87942 15.3012 7.94842 15.3635 8.02508C15.4229 8.10079 15.49 8.17458 15.5456 8.24742C15.6213 8.34708 15.6989 8.45058 15.7708 8.55792C15.8024 8.60871 15.8417 8.66142 15.8714 8.71221C15.9634 8.84829 16.042 8.98821 16.1177 9.12908C16.1503 9.19329 16.1819 9.26421 16.2097 9.33321C16.295 9.522 16.3621 9.71271 16.4033 9.90629C16.4169 9.94738 16.4262 9.98977 16.4311 10.0328V10.0424C16.4445 10.097 16.4493 10.1574 16.4541 10.2187C16.4811 10.502 16.4464 10.7877 16.3525 11.0563C16.3228 11.1368 16.295 11.2192 16.2586 11.2997C16.1867 11.4626 16.1043 11.6284 16.0056 11.7808C15.973 11.8383 15.9337 11.8977 15.8973 11.9552C15.8561 12.0156 15.812 12.0731 15.7756 12.1277C15.7229 12.2003 15.6676 12.2709 15.6098 12.3395C15.559 12.4085 15.5082 12.4775 15.4507 12.5398C15.3731 12.6337 15.2974 12.7219 15.2159 12.8062C15.1699 12.8618 15.1201 12.9193 15.0664 12.9691C15.0166 13.0266 14.9629 13.0774 14.9169 13.1234C14.8364 13.2039 14.7732 13.2643 14.7176 13.317L14.5863 13.4339C14.568 13.4523 14.5432 13.4626 14.5173 13.4627H13.5101V14.7526H14.777C15.0597 14.7526 15.329 14.6529 15.5475 14.467C15.6213 14.4028 15.9452 14.122 16.3295 13.6984C16.342 13.684 16.3588 13.6739 16.3774 13.6697L19.8753 12.6567C19.8907 12.6523 19.9069 12.6514 19.9226 12.6543C19.9383 12.6572 19.9532 12.6636 19.966 12.6732C19.9788 12.6828 19.9892 12.6952 19.9964 12.7094C20.0037 12.7237 20.0075 12.7394 20.0076 12.7554V13.4962Z" fill="black" fill-opacity="0.4"/>
</g>
</svg>
