<svg width="24" height="24" viewBox="0 0 24 24" fill="none" xmlns="http://www.w3.org/2000/svg">
<g id="radix-icons:twitter-logo">
<path id="Vector" fill-rule="evenodd" clip-rule="evenodd" d="M11.5727 7.5137C11.5727 4.7505 13.8127 2.5105 16.5759 2.5105C18.1983 2.5105 19.4927 3.2769 20.3599 4.3905C21.2772 4.20249 22.1565 3.86232 22.9615 3.3841C22.6498 4.35402 21.9973 5.1782 21.1247 5.7041L21.1279 5.7089C21.9563 5.60882 22.7651 5.38611 23.5279 5.0481L23.5263 5.0513C22.9871 5.8593 22.3103 6.5713 21.5295 7.1521C21.5711 7.4353 21.5935 7.7185 21.5935 8.0001C21.5935 13.8993 17.0991 20.7601 8.83354 20.7601C6.39626 20.7622 4.00995 20.0623 1.95994 18.7441C1.86342 18.6822 1.78136 18.6002 1.7193 18.5037C1.65724 18.4073 1.61664 18.2987 1.60025 18.1852C1.58386 18.0717 1.59207 17.956 1.62431 17.8459C1.65656 17.7358 1.71209 17.634 1.78714 17.5473C1.8585 17.4286 1.96257 17.3331 2.08687 17.2721C2.21116 17.2111 2.35041 17.1872 2.48794 17.2033C3.95354 17.3761 5.41594 17.1969 6.70714 16.6337C6.07027 16.3523 5.50012 15.9394 5.0341 15.4221C4.56808 14.9048 4.21674 14.2948 4.00314 13.6321C3.96364 13.5088 3.9581 13.3772 3.9871 13.2511C4.0161 13.1249 4.07857 13.0089 4.16794 12.9153C3.64211 12.4538 3.22092 11.8854 2.93257 11.248C2.64422 10.6106 2.49535 9.9189 2.49594 9.2193V9.1649C2.4959 8.99751 2.55418 8.83535 2.66076 8.70628C2.76734 8.57721 2.91556 8.48932 3.07994 8.4577C2.71718 7.75766 2.52839 6.98054 2.52954 6.1921C2.52954 5.4433 2.53434 4.4993 3.06074 3.6481C3.11698 3.55792 3.19248 3.48132 3.28184 3.42378C3.37119 3.36624 3.47217 3.32919 3.57754 3.3153C3.73032 3.26711 3.89404 3.26591 4.04752 3.31183C4.20099 3.35776 4.33714 3.44871 4.43834 3.5729C6.22189 5.76696 8.77288 7.20089 11.5743 7.5841V7.5137H11.5727ZM8.83354 19.1601C7.60936 19.161 6.39348 18.9593 5.23514 18.5633C6.6284 18.3335 7.94256 17.7605 9.05914 16.8961C9.17616 16.8043 9.26188 16.6785 9.30453 16.536C9.34717 16.3936 9.34465 16.2414 9.2973 16.1004C9.24995 15.9594 9.16011 15.8365 9.04011 15.7487C8.92011 15.6608 8.77584 15.6123 8.62714 15.6097C8.09148 15.6001 7.56529 15.4668 7.08959 15.2204C6.6139 14.9739 6.20156 14.6209 5.88474 14.1889C6.18874 14.1649 6.48634 14.1121 6.77434 14.0353C6.93133 13.9933 7.06951 13.8995 7.1664 13.769C7.2633 13.6386 7.3132 13.4791 7.30801 13.3167C7.30282 13.1543 7.24283 12.9984 7.13781 12.8744C7.03278 12.7504 6.88889 12.6656 6.72954 12.6337C6.12083 12.5104 5.55609 12.2268 5.09366 11.8122C4.63124 11.3975 4.28791 10.867 4.09914 10.2753C4.41914 10.3521 4.75354 10.3985 5.09594 10.4097C5.25241 10.415 5.40633 10.3691 5.53438 10.279C5.66244 10.1889 5.75764 10.0596 5.80557 9.91054C5.85351 9.7615 5.85155 9.6009 5.80001 9.45306C5.74847 9.30523 5.65014 9.17823 5.51994 9.0913C5.0425 8.77323 4.65101 8.34216 4.38026 7.83638C4.10951 7.3306 3.96787 6.76578 3.96794 6.1921C3.96794 5.9233 3.97274 5.6849 3.98874 5.4673C6.22757 7.75208 9.24507 9.10944 12.4399 9.2689C12.5633 9.27517 12.6865 9.25279 12.7997 9.20351C12.913 9.15423 13.0133 9.07938 13.0928 8.98484C13.1723 8.8903 13.2289 8.77862 13.258 8.65858C13.2871 8.53853 13.2881 8.41337 13.2607 8.2929C13.1432 7.7933 13.1402 7.27359 13.252 6.77268C13.3637 6.27176 13.5873 5.80261 13.9061 5.40033C14.2248 4.99805 14.6303 4.67307 15.0924 4.4497C15.5545 4.22634 16.0611 4.11038 16.5743 4.1105C18.5487 4.1105 19.9919 5.9393 19.9919 8.0017C19.9919 13.2113 16.0319 19.1601 8.83354 19.1601Z" fill="black" fill-opacity="0.4"/>
</g>
</svg>
